<svg xmlns="http://www.w3.org/2000/svg" width="164" height="164" viewBox="0 0 164 164">
  <path id="Union_12" data-name="Union 12" d="M0,82a82,82,0,1,1,82,82A82,82,0,0,1,0,82Zm8,0A74,74,0,1,0,82,8,74.083,74.083,0,0,0,8,82Zm25.763,44.5A12.92,12.92,0,0,1,32.5,121a14.483,14.483,0,0,1,3.812-9.408,32.954,32.954,0,0,1,10.557-7.821,65.654,65.654,0,0,1,15.773-5.315,96.867,96.867,0,0,1,38.715,0,65.609,65.609,0,0,1,15.772,5.315,32.936,32.936,0,0,1,10.561,7.821A14.478,14.478,0,0,1,131.5,121a12.932,12.932,0,0,1-1.265,5.5Zm38.7-41.924A24.57,24.57,0,1,1,82,86.5,24.424,24.424,0,0,1,72.464,84.575Z" fill="#fff"/>
</svg>
