<svg xmlns="http://www.w3.org/2000/svg" width="62.207" height="52.256" viewBox="0 0 62.207 52.256">
  <path id="Union_13" data-name="Union 13" d="M344.333-236.872A5.128,5.128,0,0,1,349.46-242a5.128,5.128,0,0,1,5.128,5.128,5.128,5.128,0,0,1-5.128,5.127A5.128,5.128,0,0,1,344.333-236.872Zm-26.921,0A5.128,5.128,0,0,1,322.539-242a5.128,5.128,0,0,1,5.128,5.128,5.128,5.128,0,0,1-5.128,5.127A5.128,5.128,0,0,1,317.412-236.872Zm2-5.128a2,2,0,0,1-1.893-1.353,1.994,1.994,0,0,1-.914-1.2L307.643-278H302a2,2,0,0,1-2-2v-2a2,2,0,0,1,2-2h10a2,2,0,0,1,2,2v.2a2,2,0,0,1,.269.594l1.393,5.2h40.195s6.174-.981,6.343,3.65-3.166,10.3-5.666,14.873-2.916,4.793-5.677,4.793l-28.5,1.663L322.9-249H351a2,2,0,0,1,2,2v3a2,2,0,0,1-2,2Z" transform="translate(-300 284)" fill="#fff"/>
</svg>
